<svg width="55" height="55" viewBox="0 0 55 55" fill="none" xmlns="http://www.w3.org/2000/svg">
<path d="M18.0081 28.9122C18.0081 30.9762 19.5143 32.6571 21.3438 32.6571C23.2024 32.6571 24.681 30.9762 24.6795 28.9122C24.71 26.8626 23.2169 25.1672 21.3438 25.1672C19.486 25.1672 18.0081 26.8481 18.0081 28.9122Z" fill="#F5DDB1"/>
<path d="M30.3451 28.9122C30.3451 30.9762 31.8513 32.6571 33.6808 32.6571C35.5539 32.6571 37.0173 30.9762 37.0165 28.9122C37.047 26.8626 35.5539 25.1672 33.6808 25.1672C31.823 25.1672 30.3451 26.8481 30.3451 28.9122Z" fill="#F5DDB1"/>
<path fill-rule="evenodd" clip-rule="evenodd" d="M55 27.5C55 42.6878 42.6878 55 27.5 55C12.3122 55 0 42.6878 0 27.5C0 12.3122 12.3122 0 27.5 0C42.6878 0 55 12.3122 55 27.5ZM32.8099 13.3395C35.4199 13.7909 37.9603 14.5794 40.3675 15.6852C40.3876 15.6946 40.4038 15.7108 40.4131 15.7309C44.606 21.9028 46.677 28.8657 45.9025 36.881C45.901 36.8979 45.8959 36.9143 45.8875 36.9291C45.8791 36.9439 45.8677 36.9567 45.854 36.9667C43.0491 39.0473 39.9101 40.6336 36.572 41.6572C36.5484 41.6646 36.523 41.6642 36.4996 41.6563C36.4761 41.6483 36.4558 41.6332 36.4415 41.613C35.7354 40.6321 35.102 39.6007 34.5467 38.527C34.5389 38.5122 34.5344 38.4959 34.5334 38.4792C34.5325 38.4625 34.535 38.4457 34.541 38.4301C34.547 38.4145 34.5562 38.4003 34.568 38.3884C34.5799 38.3766 34.5941 38.3675 34.6098 38.3616C35.6137 37.9846 36.584 37.5233 37.5104 36.9826C37.5271 36.9726 37.5411 36.9586 37.5512 36.9418C37.5612 36.9251 37.567 36.9061 37.568 36.8866C37.569 36.8671 37.5652 36.8477 37.5569 36.83C37.5486 36.8123 37.5361 36.7969 37.5205 36.7852C37.3211 36.6393 37.126 36.4855 36.9404 36.3323C36.9235 36.3186 36.9031 36.31 36.8816 36.3074C36.86 36.3048 36.8382 36.3084 36.8186 36.3178C30.8143 39.0946 24.2357 39.0946 18.1597 36.3178C18.1402 36.3091 18.1187 36.3059 18.0976 36.3088C18.0765 36.3116 18.0565 36.3203 18.04 36.3338C17.8544 36.4877 17.6593 36.6401 17.465 36.7852C17.4494 36.797 17.437 36.8125 17.4289 36.8303C17.4207 36.848 17.417 36.8675 17.4182 36.887C17.4193 36.9065 17.4252 36.9255 17.4354 36.9421C17.4456 36.9588 17.4598 36.9727 17.4766 36.9826C18.4041 37.5181 19.3726 37.9792 20.3729 38.3616C20.3884 38.3673 20.4026 38.3762 20.4145 38.3878C20.4263 38.3993 20.4356 38.4133 20.4417 38.4287C20.4478 38.4442 20.4506 38.4607 20.4498 38.4773C20.4491 38.4938 20.4448 38.5101 20.4374 38.5249C19.8911 39.6044 19.2569 40.637 18.5411 41.6122C18.5263 41.6319 18.5059 41.6465 18.4826 41.6541C18.4592 41.6618 18.4341 41.6621 18.4106 41.6551C15.0771 40.6284 11.9421 39.0423 9.13953 36.9645C9.12601 36.954 9.11474 36.9408 9.10639 36.9259C9.09805 36.9109 9.09279 36.8944 9.09094 36.8774C8.44411 29.9457 9.76243 22.9254 14.5753 15.728C14.5871 15.7089 14.6046 15.6939 14.6253 15.6852C17.0312 14.5787 19.5707 13.7902 22.1799 13.3395C22.2036 13.3356 22.228 13.339 22.2497 13.3493C22.2715 13.3595 22.2896 13.3761 22.3018 13.3969C22.6556 14.0237 22.9747 14.6697 23.2575 15.3317C26.0707 14.9041 28.9322 14.9041 31.7454 15.3317C32.0269 14.6713 32.3416 14.0255 32.6881 13.3969C32.6998 13.3757 32.7178 13.3587 32.7397 13.3484C32.7616 13.3381 32.7862 13.335 32.8099 13.3395Z" fill="#F5DDB1"/>
</svg>
