<svg width="55" height="55" viewBox="0 0 55 55" fill="none" xmlns="http://www.w3.org/2000/svg">
<path d="M22.4125 34.4438L34.2375 27.5L22.4125 20.5562V34.4438Z" fill="#F5DDB1"/>
<path fill-rule="evenodd" clip-rule="evenodd" d="M0 27.5C0 12.3105 12.3105 0 27.5 0C42.6895 0 55 12.3105 55 27.5C55 42.6895 42.6895 55 27.5 55C12.3105 55 0 42.6895 0 27.5ZM13.4062 15.2625C11.5078 15.2625 9.96875 16.8015 9.96875 18.7V36.3C9.96875 38.1985 11.5078 39.7375 13.4062 39.7375H41.6625C43.561 39.7375 45.1 38.1985 45.1 36.3V18.7C45.1 16.8015 43.561 15.2625 41.6625 15.2625H13.4062Z" fill="#F5DDB1"/>
</svg>
