<svg width="64" height="64" viewBox="0 0 64 64" fill="none" xmlns="http://www.w3.org/2000/svg">
<path d="M27.7375 38.1625L38.2125 32.0125L27.7375 25.8625V38.1625Z" fill="#352727"/>
<path d="M32 0C14.325 0 0 14.325 0 32C0 49.675 14.325 64 32 64C49.675 64 64 49.675 64 32C64 14.325 49.675 0 32 0ZM48 37.725C48 43.2375 42.4875 43.2375 42.4875 43.2375H21.5125C16 43.2375 16 37.725 16 37.725V26.2875C16 20.775 21.5125 20.775 21.5125 20.775H42.4875C48 20.775 48 26.2875 48 26.2875V37.725Z" fill="#352727"/>
</svg>
