<svg width="55" height="55" viewBox="0 0 55 55" fill="none" xmlns="http://www.w3.org/2000/svg">
<path d="M20.4687 28.534C20.4687 30.0615 21.5843 31.3054 22.9394 31.3054C24.316 31.3054 25.4112 30.0615 25.4101 28.534C25.4327 27.0172 24.3268 25.7625 22.9394 25.7625C21.5633 25.7625 20.4687 27.0064 20.4687 28.534Z" fill="#F5DDB1"/>
<path d="M29.6065 28.534C29.6065 30.0615 30.7221 31.3054 32.0772 31.3054C33.4646 31.3054 34.5485 30.0615 34.5479 28.534C34.5705 27.0172 33.4646 25.7625 32.0772 25.7625C30.7012 25.7625 29.6065 27.0064 29.6065 28.534Z" fill="#F5DDB1"/>
<path fill-rule="evenodd" clip-rule="evenodd" d="M55 27.5C55 42.6878 42.6878 55 27.5 55C12.3122 55 0 42.6878 0 27.5C0 12.3122 12.3122 0 27.5 0C42.6878 0 55 12.3122 55 27.5ZM31.4322 17.0092C33.3653 17.3433 35.247 17.9268 37.0299 18.7451C37.0448 18.7521 37.0568 18.7641 37.0638 18.779C40.1693 23.3465 41.7033 28.4996 41.1297 34.4314C41.1286 34.4439 41.1248 34.4561 41.1186 34.467C41.1123 34.4779 41.1039 34.4874 41.0937 34.4948C39.0162 36.0346 36.6912 37.2085 34.2187 37.9661C34.2012 37.9715 34.1824 37.9713 34.165 37.9654C34.1477 37.9595 34.1326 37.9483 34.122 37.9334C33.599 37.2074 33.1299 36.4441 32.7185 35.6496C32.7128 35.6386 32.7095 35.6265 32.7088 35.6142C32.708 35.6018 32.7099 35.5894 32.7144 35.5778C32.7188 35.5663 32.7256 35.5557 32.7344 35.547C32.7432 35.5383 32.7537 35.5315 32.7653 35.5271C33.5089 35.2481 34.2276 34.9067 34.9137 34.5066C34.9261 34.4992 34.9365 34.4888 34.944 34.4764C34.9514 34.464 34.9557 34.45 34.9564 34.4356C34.9572 34.4211 34.9544 34.4067 34.9482 34.3936C34.9421 34.3806 34.9328 34.3692 34.9212 34.3605C34.7735 34.2526 34.6291 34.1387 34.4916 34.0254C34.4791 34.0152 34.464 34.0088 34.448 34.0069C34.432 34.005 34.4158 34.0077 34.4013 34.0146C29.954 36.0696 25.0814 36.0696 20.581 34.0146C20.5665 34.0081 20.5506 34.0058 20.535 34.0079C20.5193 34.01 20.5045 34.0164 20.4923 34.0264C20.3548 34.1403 20.2103 34.2531 20.0664 34.3605C20.0549 34.3693 20.0457 34.3807 20.0396 34.3938C20.0336 34.407 20.0309 34.4214 20.0317 34.4359C20.0326 34.4503 20.037 34.4643 20.0445 34.4766C20.0521 34.489 20.0625 34.4993 20.075 34.5066C20.762 34.9029 21.4793 35.2441 22.2202 35.5271C22.2317 35.5313 22.2422 35.5379 22.251 35.5465C22.2598 35.5551 22.2667 35.5654 22.2712 35.5768C22.2757 35.5882 22.2778 35.6005 22.2772 35.6127C22.2767 35.625 22.2735 35.637 22.268 35.648C21.8634 36.4469 21.3936 37.2111 20.8635 37.9328C20.8525 37.9473 20.8374 37.9582 20.8201 37.9638C20.8028 37.9695 20.7842 37.9697 20.7668 37.9645C18.2977 37.2047 15.9757 36.0309 13.8999 34.4932C13.8898 34.4854 13.8815 34.4757 13.8753 34.4646C13.8691 34.4535 13.8652 34.4413 13.8639 34.4287C13.3848 29.2988 14.3612 24.1033 17.926 18.7768C17.9348 18.7627 17.9477 18.7516 17.9631 18.7451C19.7451 17.9263 21.6261 17.3427 23.5587 17.0092C23.5763 17.0063 23.5943 17.0088 23.6104 17.0164C23.6265 17.024 23.6399 17.0363 23.6489 17.0516C23.911 17.5156 24.1474 17.9936 24.3568 18.4836C26.4405 18.1671 28.56 18.1671 30.6437 18.4836C30.8522 17.9948 31.0853 17.5169 31.3419 17.0516C31.3506 17.0359 31.364 17.0234 31.3802 17.0158C31.3964 17.0081 31.4146 17.0058 31.4322 17.0092Z" fill="#F5DDB1"/>
</svg>
