<svg width="55" height="55" viewBox="0 0 55 55" fill="none" xmlns="http://www.w3.org/2000/svg">
<path d="M27.5 0C12.375 0 0 12.3971 0 27.6657C0 41.4709 10.065 52.9292 23.21 55V35.6727H16.225V27.6657H23.21V21.5637C23.21 14.6335 27.3075 10.8233 33.605 10.8233C36.6025 10.8233 39.7375 11.3479 39.7375 11.3479V18.1677H36.2725C32.8625 18.1677 31.79 20.2937 31.79 22.4749V27.6657H39.435L38.1975 35.6727H31.79V55C38.2701 53.9723 44.171 50.6527 48.4272 45.6401C52.6833 40.6277 55.0148 34.2524 54.9999 27.6657C54.9999 12.3971 42.6249 0 27.5 0Z" fill="#F5DDB1"/>
</svg>
