<svg width="55" height="55" viewBox="0 0 55 55" fill="none" xmlns="http://www.w3.org/2000/svg">
<path d="M23.8369 32.7959L32.8389 27.5107L23.8369 22.2256V32.7959Z" fill="#F5DDB1"/>
<path d="M27.5 0C12.3105 0 0 12.3105 0 27.5C0 42.6895 12.3105 55 27.5 55C42.6895 55 55 42.6895 55 27.5C55 12.3105 42.6895 0 27.5 0ZM41.25 32.4199C41.25 37.1572 36.5127 37.1572 36.5127 37.1572H18.4873C13.75 37.1572 13.75 32.4199 13.75 32.4199V22.5908C13.75 17.8535 18.4873 17.8535 18.4873 17.8535H36.5127C41.25 17.8535 41.25 22.5908 41.25 22.5908V32.4199Z" fill="#F5DDB1"/>
</svg>
