<svg width="64" height="64" viewBox="0 0 64 64" fill="none" xmlns="http://www.w3.org/2000/svg">
<path d="M23.8181 33.2031C23.8181 34.9806 25.1162 36.4281 26.6931 36.4281C28.295 36.4281 29.5694 34.9806 29.5681 33.2031C29.5944 31.4381 28.3075 29.9781 26.6931 29.9781C25.0919 29.9781 23.8181 31.4256 23.8181 33.2031Z" fill="#352727"/>
<path d="M34.4512 33.2031C34.4512 34.9806 35.7494 36.4281 37.3262 36.4281C38.9406 36.4281 40.2019 34.9806 40.2012 33.2031C40.2275 31.4381 38.9406 29.9781 37.3262 29.9781C35.725 29.9781 34.4512 31.4256 34.4512 33.2031Z" fill="#352727"/>
<path fill-rule="evenodd" clip-rule="evenodd" d="M64 32C64 49.6731 49.6731 64 32 64C14.3269 64 0 49.6731 0 32C0 14.3269 14.3269 0 32 0C49.6731 0 64 14.3269 64 32ZM36.5756 19.7925C38.8251 20.1813 41.0146 20.8603 43.0894 21.8125C43.1067 21.8206 43.1207 21.8345 43.1287 21.8519C46.7425 27.1669 48.5275 33.1631 47.86 40.0656C47.8587 40.0802 47.8543 40.0943 47.847 40.107C47.8398 40.1198 47.83 40.1308 47.8181 40.1394C45.4007 41.9311 42.6952 43.2972 39.8181 44.1788C39.7977 44.1851 39.7759 44.1848 39.7557 44.1779C39.7355 44.1711 39.718 44.158 39.7056 44.1406C39.097 43.2959 38.5512 42.4077 38.0725 41.4831C38.0658 41.4704 38.0619 41.4563 38.0611 41.4419C38.0602 41.4275 38.0625 41.4131 38.0676 41.3997C38.0728 41.3862 38.0807 41.374 38.0909 41.3638C38.1011 41.3536 38.1134 41.3457 38.1269 41.3406C38.9922 41.016 39.8285 40.6187 40.6269 40.1531C40.6413 40.1445 40.6534 40.1324 40.6621 40.118C40.6707 40.1036 40.6757 40.0873 40.6766 40.0705C40.6774 40.0537 40.6742 40.0369 40.667 40.0217C40.6599 40.0065 40.6491 39.9932 40.6356 39.9831C40.4637 39.8575 40.2956 39.725 40.1356 39.5931C40.1211 39.5813 40.1035 39.5739 40.0849 39.5717C40.0663 39.5694 40.0475 39.5726 40.0306 39.5806C34.8556 41.9719 29.1856 41.9719 23.9487 39.5806C23.932 39.5731 23.9134 39.5704 23.8952 39.5728C23.877 39.5753 23.8598 39.5827 23.8456 39.5944C23.6856 39.7269 23.5175 39.8581 23.35 39.9831C23.3366 39.9933 23.3259 40.0066 23.3189 40.0219C23.3118 40.0372 23.3087 40.054 23.3096 40.0708C23.3106 40.0876 23.3157 40.1039 23.3245 40.1183C23.3333 40.1326 23.3455 40.1446 23.36 40.1531C24.1594 40.6143 24.9941 41.0113 25.8562 41.3406C25.8697 41.3456 25.8819 41.3532 25.8921 41.3632C25.9023 41.3732 25.9103 41.3852 25.9156 41.3985C25.9208 41.4118 25.9232 41.426 25.9226 41.4403C25.9219 41.4545 25.9183 41.4685 25.9119 41.4813C25.441 42.4109 24.8944 43.3002 24.2775 44.14C24.2647 44.1569 24.2471 44.1695 24.227 44.1761C24.2069 44.1827 24.1853 44.183 24.165 44.1769C21.2919 43.2928 18.5899 41.9269 16.1744 40.1375C16.1627 40.1285 16.153 40.1172 16.1458 40.1043C16.1386 40.0914 16.1341 40.0772 16.1325 40.0625C15.575 34.0931 16.7112 28.0475 20.8594 21.8494C20.8696 21.8329 20.8846 21.82 20.9025 21.8125C22.9761 20.8597 25.1649 20.1806 27.4137 19.7925C27.4342 19.7892 27.4552 19.7921 27.4739 19.8009C27.4926 19.8097 27.5083 19.824 27.5187 19.8419C27.8238 20.3817 28.0988 20.938 28.3425 21.5081C30.7671 21.1399 33.2335 21.1399 35.6581 21.5081C35.9008 20.9394 36.1719 20.3833 36.4706 19.8419C36.4807 19.8236 36.4962 19.809 36.5151 19.8002C36.534 19.7913 36.5551 19.7886 36.5756 19.7925Z" fill="#352727"/>
</svg>
