<svg width="64" height="64" viewBox="0 0 64 64" fill="none" xmlns="http://www.w3.org/2000/svg">
<path d="M32 0C14.4 0 0 14.4257 0 32.1928C0 48.257 11.712 61.5904 27.008 64V41.5101H18.88V32.1928H27.008V25.0923C27.008 17.0281 31.776 12.5944 39.104 12.5944C42.5919 12.5944 46.2399 13.2048 46.2399 13.2048V21.1405H42.2079C38.24 21.1405 36.992 23.6144 36.992 26.1527V32.1928H45.8879L44.4479 41.5101H36.992V64C44.5324 62.8042 51.399 58.9414 56.3516 53.1084C61.3042 47.2758 64.0172 39.8574 63.9999 32.1928C63.9999 14.4257 49.5999 0 32 0Z" fill="#352727"/>
</svg>
